<svg width="392" height="392" viewBox="0 0 392 392" fill="none" xmlns="http://www.w3.org/2000/svg">
<path d="M272.562 328.453C268.336 328.453 264.906 331.883 264.906 336.109C264.906 340.336 268.336 343.766 272.562 343.766C276.789 343.766 280.219 340.336 280.219 336.109C280.219 331.883 276.789 328.453 272.562 328.453Z" fill="#0074D9"/>
<path d="M119.438 328.453C115.211 328.453 111.781 331.883 111.781 336.109C111.781 340.336 115.211 343.766 119.438 343.766C123.664 343.766 127.094 340.336 127.094 336.109C127.094 331.883 123.664 328.453 119.438 328.453Z" fill="#0074D9"/>
<path d="M342.728 288.801C334.11 275.461 322.266 264.861 308.392 258.016C307.222 256.929 305.718 256.201 304.045 256.015C294.01 251.755 283.432 249.594 272.562 249.594H249.594V229.394C262.886 217.99 272.442 202.884 277.075 186.047H280.219C297.105 186.047 310.844 172.309 310.844 155.422C310.844 147.42 307.755 140.128 302.711 134.666C303.193 134.257 303.663 133.831 304.115 133.38C308.454 129.041 310.844 123.273 310.844 117.141C310.844 107.063 304.316 98.4854 295.269 95.3999C292.564 60.1934 267.855 30.1074 233.834 20.678C231.818 10.1491 223.129 0 211.312 0H180.688C168.871 0 160.182 10.1491 158.166 20.678C124.148 30.1067 99.4417 60.1873 96.7321 95.3892C93.4384 96.5063 90.418 98.369 87.8853 100.901C83.5458 105.241 81.1562 111.008 81.1562 117.141C81.1562 124.156 84.3213 130.443 89.2948 134.66C84.2478 140.122 81.1562 147.417 81.1562 155.422C81.1562 172.309 94.8946 186.047 111.781 186.047H114.903C118.771 200.101 126.105 213.005 136.336 223.663C138.259 225.667 140.297 227.577 142.406 229.388V249.594H119.438C108.567 249.594 97.9893 251.755 87.955 256.014C86.2829 256.201 84.7777 256.928 83.6086 258.015C69.7331 264.861 57.8904 275.461 49.2718 288.801C40.0782 303.031 35.2188 319.39 35.2188 336.109V384.344C35.2188 388.572 38.6465 392 42.875 392H349.125C353.354 392 356.781 388.572 356.781 384.344V336.109C356.781 319.39 351.922 303.031 342.728 288.801ZM81.1562 376.688H50.5312V336.109C50.5312 312.821 62.4612 290.5 81.1562 277.25V376.688ZM280.219 170.734H279.87C280.098 168.187 280.219 165.631 280.219 163.078V140.109C288.662 140.109 295.531 146.979 295.531 155.422C295.531 163.865 288.662 170.734 280.219 170.734ZM157.719 36.8564V71.2031C157.719 75.4317 161.146 78.8594 165.375 78.8594C169.604 78.8594 173.031 75.4317 173.031 71.2031V26.8451C173.031 26.8252 173.031 26.8053 173.031 26.7854V25.2656C173.031 20.5218 177.039 15.3125 180.688 15.3125H211.312C214.961 15.3125 218.969 20.5218 218.969 25.2656V26.7854C218.969 26.8053 218.969 26.8252 218.969 26.8451V71.2031C218.969 75.4317 222.396 78.8594 226.625 78.8594C230.854 78.8594 234.281 75.4317 234.281 71.2031V36.8564C259.003 45.6052 276.85 67.9768 279.791 94.1719H112.209C115.15 67.9768 132.997 45.6052 157.719 36.8564ZM111.781 170.734C103.338 170.734 96.4688 163.865 96.4688 155.422C96.4688 146.979 103.338 140.109 111.781 140.109V163.078C111.781 165.631 111.902 168.188 112.13 170.734H111.781ZM111.781 124.797H104.125C99.9033 124.797 96.4688 121.362 96.4688 117.141C96.4688 115.098 97.2658 113.175 98.7128 111.729C100.161 110.281 102.082 109.484 104.125 109.484H287.875C292.097 109.484 295.531 112.919 295.531 117.141C295.531 119.183 294.734 121.106 293.287 122.552C291.84 124 289.918 124.797 287.875 124.797H280.219H272.562H119.438H111.781ZM128.485 176.999C128.47 176.916 128.455 176.833 128.437 176.751C127.548 172.258 127.094 167.659 127.094 163.078V140.109H264.906V163.078C264.906 167.655 264.452 172.251 263.563 176.748C263.545 176.831 263.53 176.915 263.515 176.998C260.094 194.077 250.624 209.365 236.835 220.057C224.856 229.363 210.736 234.281 196 234.281C181.264 234.281 167.144 229.363 155.153 220.049C152.408 217.925 149.796 215.576 147.386 213.062C137.728 203 131.195 190.535 128.485 176.999ZM188.344 376.688H127.094V359.078C127.094 354.85 123.666 351.422 119.438 351.422C115.209 351.422 111.781 354.85 111.781 359.078V376.688H96.4688V269.097C101.438 267.224 106.557 265.975 111.781 265.359V313.141C111.781 317.369 115.209 320.797 119.438 320.797C123.666 320.797 127.094 317.369 127.094 313.141V264.906H146.782L188.344 308.547V376.688ZM157.719 254.188V239.927C169.533 246.278 182.546 249.594 196 249.594C209.455 249.594 222.468 246.277 234.281 239.928V254.188L196 294.383L157.719 254.188ZM295.531 376.688H280.219V359.078C280.219 354.85 276.791 351.422 272.562 351.422C268.334 351.422 264.906 354.85 264.906 359.078V376.688H203.656V308.547L245.218 264.906H264.906V313.141C264.906 317.369 268.334 320.797 272.562 320.797C276.791 320.797 280.219 317.369 280.219 313.141V265.359C285.443 265.975 290.562 267.225 295.531 269.098V376.688ZM341.469 376.688H310.844V277.249C329.539 290.5 341.469 312.821 341.469 336.109V376.688Z" fill="#0074D9"/>
</svg>
