<svg width="70" height="70" viewBox="0 0 70 70" fill="none" xmlns="http://www.w3.org/2000/svg">
<path d="M28.8573 49.0071L26.0503 36.3708C25.9279 35.8199 25.3824 35.4721 24.8316 35.595C24.2809 35.7174 23.9336 36.263 24.0559 36.8136L26.8628 49.45C26.9687 49.9261 27.3908 50.2503 27.8591 50.2503C27.9325 50.2503 28.0069 50.2424 28.0815 50.2257C28.6322 50.1033 28.9795 49.5577 28.8573 49.0071Z" fill="#57ADE4"/>
<path d="M33.5935 49.1537L32.6581 36.5172C32.6164 35.9547 32.1284 35.5336 31.5639 35.574C31.0013 35.6157 30.579 36.1054 30.6207 36.6681L31.5563 49.3045C31.5961 49.8414 32.0439 50.2506 32.5739 50.2506C32.5992 50.2506 32.6247 50.2496 32.6503 50.2478C33.2129 50.2063 33.6352 49.7164 33.5935 49.1537Z" fill="#57ADE4"/>
<path d="M38.2995 35.574C37.7372 35.5335 37.247 35.9546 37.2053 36.5172L36.2697 49.1536C36.228 49.7162 36.6504 50.206 37.213 50.2477C37.2387 50.2496 37.2641 50.2505 37.2894 50.2505C37.8192 50.2505 38.2672 49.8414 38.307 49.3044L39.2426 36.668C39.2844 36.1054 38.8621 35.6155 38.2995 35.574Z" fill="#57ADE4"/>
<path d="M45.0288 35.595C44.4778 35.4722 43.9324 35.8199 43.8101 36.3707L41.0031 49.0071C40.8807 49.5578 41.2281 50.1033 41.7788 50.2257C41.8535 50.2423 41.928 50.2503 42.0013 50.2503C42.4695 50.2503 42.8917 49.9261 42.9976 49.4499L45.8045 36.8135C45.9269 36.263 45.5795 35.7173 45.0288 35.595Z" fill="#57ADE4"/>
<path d="M34.9999 0C22.9792 0 13.1998 9.77947 13.1998 21.8002C13.1998 24.0607 13.5458 26.2912 14.2286 28.4314C14.2301 28.4381 14.2331 28.4444 14.2349 28.4511C14.2361 28.4559 14.2375 28.4608 14.2387 28.4656C14.2416 28.4764 14.244 28.4872 14.2473 28.4979C14.2539 28.5191 14.2618 28.5401 14.2699 28.561C14.2744 28.5731 14.2786 28.5851 14.2837 28.5969C14.2861 28.6029 14.2879 28.6089 14.2905 28.6149C14.519 29.1277 14.7447 29.6366 14.9684 30.1434C18.5988 38.3668 21.6621 46.0324 23.0086 54.9019C23.2233 56.3158 24.1634 57.441 25.4191 57.9257V65.4581C25.4191 67.9625 27.4566 70 29.9609 70H40.039C42.5432 70 44.5808 67.9625 44.5808 65.4581V57.9257C45.8365 57.4409 46.7766 56.3158 46.9912 54.9019C48.337 46.0382 51.3969 38.3772 55.024 30.1605C55.2501 29.6481 55.4785 29.1335 55.7095 28.6149C55.7267 28.5764 55.7405 28.5372 55.7527 28.4979C55.756 28.4872 55.7584 28.4764 55.7613 28.4656C55.7627 28.4607 55.7641 28.4556 55.7653 28.4507C56.452 26.3048 56.8002 24.0676 56.8002 21.8002C56.8001 9.77947 47.0206 0 34.9999 0ZM42.5378 64.1263H34.6577C34.0936 64.1263 33.6363 64.5836 33.6363 65.1477C33.6363 65.7118 34.0936 66.1691 34.6577 66.1691H42.4332C42.126 67.2014 41.1695 67.9566 40.039 67.9566H29.9609C28.8304 67.9566 27.874 67.2014 27.5667 66.1691H29.9043C30.4684 66.1691 30.9257 65.7118 30.9257 65.1477C30.9257 64.5836 30.4684 64.1263 29.9043 64.1263H27.4621V61.9018H29.9043C30.4684 61.9018 30.9257 61.4444 30.9257 60.8803C30.9257 60.3161 30.4684 59.8589 29.9043 59.8589H27.4621V58.1845H42.5376V59.8589H34.6573C34.0932 59.8589 33.6359 60.3162 33.6359 60.8803C33.6359 61.4446 34.0932 61.9018 34.6573 61.9018H42.5378V64.1263ZM53.0971 29.4668C53.087 29.4898 53.0764 29.5133 53.0663 29.5364C53.0658 29.5376 53.0654 29.539 53.0648 29.5404C49.4169 37.8163 46.3429 45.5621 44.9715 54.5952C44.849 55.402 44.2268 56.008 43.4476 56.121C43.4397 56.122 43.4318 56.1218 43.4238 56.1229C43.378 56.1291 43.3372 56.1335 43.2992 56.1365C43.261 56.1388 43.223 56.1417 43.1842 56.1417H26.8158C26.7771 56.1417 26.7391 56.1388 26.701 56.1365C26.6628 56.1333 26.622 56.129 26.5763 56.1229C26.5685 56.1218 26.5607 56.122 26.5529 56.121C25.7734 56.0081 25.1511 55.4022 25.0285 54.5952C23.6571 45.5625 20.5831 37.8166 16.9352 29.5404C16.9346 29.539 16.9342 29.5378 16.9337 29.5364C16.9234 29.5133 16.9129 29.4896 16.9027 29.4664C16.8876 29.4322 16.8727 29.3982 16.8575 29.364C17.0197 29.3772 17.1821 29.3883 17.3443 29.4012C17.688 29.4284 18.0319 29.4544 18.3759 29.4799C18.8222 29.5133 19.2684 29.5454 19.715 29.576C20.061 29.5997 20.4072 29.6225 20.7533 29.6447C21.1992 29.6731 21.645 29.7 22.0911 29.7259C22.4373 29.7458 22.7835 29.7655 23.1299 29.7838C23.579 29.8076 24.0284 29.8295 24.4778 29.8507C24.82 29.8668 25.1622 29.8831 25.5046 29.8976C25.963 29.917 26.4217 29.934 26.8804 29.9506C27.2131 29.9627 27.5458 29.9755 27.8785 29.9861C28.3586 30.0014 28.8387 30.0135 29.3189 30.0257C29.6296 30.0336 29.9404 30.0428 30.2512 30.0494C30.7841 30.0607 31.3172 30.0682 31.8504 30.0757C32.1088 30.0794 32.367 30.0848 32.6254 30.0875C34.209 30.1043 35.7929 30.1042 37.3765 30.0875C37.6283 30.0848 37.8802 30.0796 38.132 30.076C38.6722 30.0685 39.2124 30.0607 39.7524 30.0492C40.0562 30.0428 40.3598 30.0338 40.6636 30.0261C41.1513 30.0138 41.6391 30.0014 42.1267 29.9859C42.4537 29.9755 42.7804 29.9629 43.1075 29.9511C43.5716 29.9342 44.0358 29.9171 44.4998 29.8975C44.8383 29.8831 45.1766 29.867 45.515 29.8511C45.968 29.8298 46.4211 29.8078 46.8739 29.7837C47.2178 29.7654 47.5615 29.746 47.9051 29.7262C48.353 29.7003 48.8007 29.6732 49.2483 29.6447C49.5937 29.6227 49.9388 29.5998 50.284 29.5762C50.7317 29.5455 51.1792 29.5131 51.6267 29.4798C51.9688 29.4542 52.3107 29.4285 52.6525 29.4014C52.8157 29.3885 52.9792 29.3774 53.1425 29.364C53.1272 29.3983 53.1123 29.4325 53.0971 29.4668ZM53.9975 27.2398C53.6576 27.269 53.3175 27.2967 52.9773 27.3244C52.6033 27.3549 52.2295 27.3865 51.8551 27.4151C51.425 27.4479 50.9944 27.4774 50.5638 27.5078C50.194 27.5339 49.8243 27.5611 49.4544 27.5853C49.0175 27.6139 48.5803 27.6389 48.1432 27.6648C47.7789 27.6864 47.4145 27.7096 47.05 27.7294C46.6042 27.7536 46.1579 27.7742 45.7118 27.7957C45.3557 27.8129 44.9997 27.8318 44.6434 27.8472C44.1839 27.8672 43.7242 27.8832 43.2644 27.9004C42.921 27.9133 42.5777 27.9279 42.2341 27.9391C41.7511 27.9548 41.2678 27.9664 40.7845 27.979C40.4642 27.9874 40.144 27.9978 39.8236 28.0047C39.2872 28.0164 38.7507 28.0235 38.2141 28.0313C37.9466 28.0351 37.6792 28.0412 37.4117 28.0441C36.6077 28.0529 35.8037 28.0574 34.9997 28.0574C34.9978 28.0574 34.9958 28.0574 34.9939 28.0574C34.1919 28.0574 33.3898 28.0529 32.5878 28.0441C32.3166 28.0411 32.0455 28.0349 31.7742 28.031C31.2415 28.0232 30.7088 28.0162 30.1761 28.0046C29.8521 27.9976 29.5283 27.987 29.2044 27.9786C28.725 27.966 28.2454 27.9547 27.766 27.9391C27.4192 27.9278 27.0726 27.913 26.7257 27.9001C26.2695 27.8832 25.813 27.8672 25.3569 27.8474C24.9978 27.8318 24.6387 27.8128 24.2797 27.7954C23.8365 27.7739 23.3932 27.7536 22.9503 27.7295C22.5834 27.7096 22.2169 27.6863 21.8502 27.6646C21.4153 27.6387 20.9804 27.6139 20.5458 27.5854C20.1743 27.5611 19.8031 27.5337 19.4318 27.5076C19.0026 27.4774 18.5735 27.448 18.1446 27.4152C17.7697 27.3866 17.3952 27.3549 17.0206 27.3244C16.6809 27.2967 16.3411 27.2692 16.0017 27.2399C15.4973 25.4761 15.2421 23.6496 15.2421 21.8003C15.2421 10.9062 24.1051 2.04312 34.9993 2.04312C45.8934 2.04312 54.7564 10.9062 54.7564 21.8003C54.7571 23.6496 54.5019 25.4761 53.9975 27.2398Z" fill="#57ADE4"/>
</svg>
