<svg width="70" height="70" viewBox="0 0 70 70" fill="none" xmlns="http://www.w3.org/2000/svg">
<path d="M68.3014 31.8335L62.6019 28.9843L68.3014 26.1405C68.4834 26.0498 68.6365 25.9102 68.7436 25.7373C68.8506 25.5643 68.9073 25.365 68.9073 25.1616C68.9073 24.9583 68.8506 24.7589 68.7436 24.586C68.6365 24.4131 68.4834 24.2734 68.3014 24.1827L35.4889 7.77649C35.3371 7.70063 35.1697 7.66113 35 7.66113C34.8303 7.66113 34.6629 7.70063 34.5111 7.77649L1.69861 24.1827C1.5166 24.2734 1.36349 24.4131 1.25646 24.586C1.14944 24.7589 1.09274 24.9583 1.09274 25.1616C1.09274 25.365 1.14944 25.5643 1.25646 25.7373C1.36349 25.9102 1.5166 26.0498 1.69861 26.1405L7.39814 28.9843L1.69861 31.8335C1.51679 31.9244 1.36389 32.0641 1.25705 32.237C1.15021 32.4099 1.09367 32.6092 1.09376 32.8124V37.1874C1.09265 37.3916 1.14871 37.592 1.25561 37.766C1.3625 37.94 1.51596 38.0805 1.69861 38.1718L7.39814 41.0155L1.69861 43.8593C1.5166 43.95 1.36349 44.0897 1.25646 44.2626C1.14944 44.4355 1.09274 44.6348 1.09274 44.8382C1.09274 45.0416 1.14944 45.2409 1.25646 45.4138C1.36349 45.5867 1.5166 45.7264 1.69861 45.8171L34.5111 62.2234C34.6629 62.2992 34.8303 62.3387 35 62.3387C35.1697 62.3387 35.3371 62.2992 35.4889 62.2234L68.3014 45.8171C68.4834 45.7264 68.6365 45.5867 68.7436 45.4138C68.8506 45.2409 68.9073 45.0416 68.9073 44.8382C68.9073 44.6348 68.8506 44.4355 68.7436 44.2626C68.6365 44.0897 68.4834 43.95 68.3014 43.8593L62.6019 41.0155L68.3014 38.1718C68.4841 38.0805 68.6375 37.94 68.7444 37.766C68.8513 37.592 68.9074 37.3916 68.9063 37.1874V32.8124C68.9064 32.6092 68.8498 32.4099 68.743 32.237C68.6361 32.0641 68.4832 31.9244 68.3014 31.8335ZM35 9.97274L65.3669 25.1562L35 40.3396L4.63314 25.1562L35 9.97274ZM34.5111 42.5468C34.6629 42.6227 34.8303 42.6621 35 42.6621C35.1697 42.6621 35.3371 42.6227 35.4889 42.5468L60.1563 30.2071L65.3669 32.8124L35 47.9959L4.63314 32.8124L9.84376 30.2071L34.5111 42.5468ZM3.28126 34.5821L33.9063 49.8946V51.824L3.28126 36.5115V34.5821ZM65.3669 44.8437L35 60.0271L4.63314 44.8437L9.84376 42.2384L34.5111 54.578C34.6629 54.6539 34.8303 54.6934 35 54.6934C35.1697 54.6934 35.3371 54.6539 35.4889 54.578L60.1563 42.2384L65.3669 44.8437ZM36.0938 51.824V49.8946L66.7188 34.5821V36.5115L36.0938 51.824Z" fill="#57ADE4"/>
</svg>
